<svg width="206" height="32" viewBox="0 0 206 32" fill="none" xmlns="http://www.w3.org/2000/svg">
<path d="M25.0484 17.512L17.8605 29.8225L10.6726 17.512H25.0484ZM26.974 16.4117H8.73926L17.8605 32L26.974 16.4117Z" fill="white"/>
<path d="M37.5455 2.20051L44.7334 14.511H30.3576L37.5455 2.20051ZM37.5455 0L28.4242 15.5882H46.6667L37.5455 0Z" fill="white"/>
<path d="M0 0L7.64787 13.7878L16.0051 0.346215L0 0Z" fill="#4CAF4F"/>
<path d="M17.8608 1.20784L25.8829 14.9187H9.82312L17.8608 1.20784Z" fill="#4CAF4F"/>
<path d="M27.9486 17.9121L35.9785 32H19.5367L27.6991 17.9121H27.9486Z" fill="#4CAF4F"/>
<path d="M29.6871 17.058L37.5455 30.9304L45.5129 17.058H29.6871Z" fill="#4CAF4F"/>
<path d="M80.0436 2.22539V29.3769H75.0853L63.2728 12.2879H63.0739V29.3769H57.3334V2.22539H62.3713L74.091 19.3011H74.3296V2.22539H80.0436Z" fill="white"/>
<path d="M93.9607 29.7746C91.866 29.7746 90.063 29.3504 88.5517 28.5019C87.0491 27.6446 85.8913 26.4337 85.0782 24.8693C84.265 23.2961 83.8585 21.4356 83.8585 19.2879C83.8585 17.1932 84.265 15.3548 85.0782 13.7727C85.8913 12.1907 87.0359 10.9577 88.5119 10.0739C89.9967 9.19003 91.7379 8.74812 93.7354 8.74812C95.0788 8.74812 96.3294 8.96466 97.4873 9.39774C98.6539 9.82198 99.6703 10.4628 100.537 11.3201C101.412 12.1774 102.092 13.2557 102.578 14.5549C103.064 15.8453 103.307 17.3567 103.307 19.089V20.6402H86.1123V17.1402H97.991C97.991 16.327 97.8143 15.6067 97.4607 14.9792C97.1072 14.3517 96.6167 13.8611 95.9892 13.5076C95.3705 13.1452 94.6501 12.964 93.8282 12.964C92.9708 12.964 92.2107 13.1629 91.5479 13.5606C90.8938 13.9495 90.3812 14.4754 90.01 15.1383C89.6388 15.7923 89.4487 16.5215 89.4399 17.3258V20.6534C89.4399 21.661 89.6255 22.5316 89.9967 23.2652C90.3768 23.9987 90.9115 24.5644 91.6009 24.9621C92.2903 25.3599 93.1078 25.5587 94.0535 25.5587C94.6811 25.5587 95.2556 25.4703 95.777 25.2936C96.2985 25.1168 96.7448 24.8516 97.116 24.4981C97.4873 24.1446 97.7701 23.7115 97.9645 23.1989L103.188 23.5436C102.923 24.7986 102.379 25.8946 101.557 26.8315C100.744 27.7595 99.6924 28.4842 98.402 29.0057C97.1205 29.5183 95.64 29.7746 93.9607 29.7746Z" fill="white"/>
<path d="M111.348 9.01327L115.087 16.1326L118.918 9.01327H124.712L118.812 19.1951L124.871 29.3769H119.104L115.087 22.3371L111.136 29.3769H105.303L111.348 19.1951L105.515 9.01327H111.348Z" fill="white"/>
<path d="M136.537 29.7746C134.452 29.7746 132.657 29.3327 131.155 28.4489C129.661 27.5562 128.512 26.3188 127.708 24.7368C126.912 23.1547 126.515 21.334 126.515 19.2746C126.515 17.1888 126.917 15.3592 127.721 13.786C128.534 12.2039 129.688 10.971 131.181 10.0871C132.675 9.19445 134.452 8.74812 136.511 8.74812C138.287 8.74812 139.843 9.07072 141.178 9.71592C142.512 10.3611 143.568 11.2671 144.346 12.4337C145.124 13.6004 145.553 14.9703 145.632 16.5436H140.303C140.152 15.5272 139.755 14.7096 139.109 14.0909C138.473 13.4634 137.638 13.1496 136.604 13.1496C135.729 13.1496 134.964 13.3883 134.31 13.8655C133.665 14.334 133.161 15.0189 132.799 15.9205C132.436 16.822 132.255 17.9135 132.255 19.1951C132.255 20.4943 132.432 21.5991 132.786 22.5095C133.148 23.4198 133.656 24.1136 134.31 24.5909C134.964 25.0682 135.729 25.3068 136.604 25.3068C137.249 25.3068 137.828 25.1743 138.34 24.9091C138.862 24.6439 139.291 24.2595 139.626 23.7557C139.971 23.2431 140.197 22.6288 140.303 21.9129H145.632C145.544 23.4684 145.12 24.8384 144.359 26.0227C143.608 27.1982 142.57 28.1174 141.244 28.7803C139.918 29.4432 138.349 29.7746 136.537 29.7746Z" fill="white"/>
<path d="M158.528 29.7746C156.434 29.7746 154.631 29.3504 153.119 28.5019C151.617 27.6446 150.459 26.4337 149.646 24.8693C148.833 23.2961 148.426 21.4356 148.426 19.2879C148.426 17.1932 148.833 15.3548 149.646 13.7727C150.459 12.1907 151.604 10.9577 153.08 10.0739C154.564 9.19003 156.306 8.74812 158.303 8.74812C159.647 8.74812 160.897 8.96466 162.055 9.39774C163.222 9.82198 164.238 10.4628 165.104 11.3201C165.979 12.1774 166.66 13.2557 167.146 14.5549C167.632 15.8453 167.875 17.3567 167.875 19.089V20.6402H150.68V17.1402H162.559C162.559 16.327 162.382 15.6067 162.028 14.9792C161.675 14.3517 161.184 13.8611 160.557 13.5076C159.938 13.1452 159.218 12.964 158.396 12.964C157.539 12.964 156.778 13.1629 156.116 13.5606C155.462 13.9495 154.949 14.4754 154.578 15.1383C154.206 15.7923 154.016 16.5215 154.008 17.3258V20.6534C154.008 21.661 154.193 22.5316 154.564 23.2652C154.944 23.9987 155.479 24.5644 156.169 24.9621C156.858 25.3599 157.676 25.5587 158.621 25.5587C159.249 25.5587 159.823 25.4703 160.345 25.2936C160.866 25.1168 161.313 24.8516 161.684 24.4981C162.055 24.1446 162.338 23.7115 162.532 23.1989L167.756 23.5436C167.491 24.7986 166.947 25.8946 166.125 26.8315C165.312 27.7595 164.26 28.4842 162.97 29.0057C161.688 29.5183 160.208 29.7746 158.528 29.7746Z" fill="white"/>
<path d="M177.208 17.6042V29.3769H171.561V9.01327H176.943V12.6061H177.182C177.633 11.4217 178.388 10.4849 179.449 9.79546C180.51 9.09723 181.795 8.74812 183.307 8.74812C184.721 8.74812 185.954 9.05746 187.006 9.67615C188.057 10.2948 188.875 11.1787 189.458 12.3277C190.042 13.4678 190.333 14.8289 190.333 16.411V29.3769H184.686V17.4186C184.694 16.1724 184.376 15.2001 183.731 14.5019C183.086 13.7948 182.198 13.4413 181.066 13.4413C180.306 13.4413 179.635 13.6048 179.051 13.9318C178.477 14.2588 178.026 14.7361 177.699 15.3636C177.381 15.9823 177.217 16.7292 177.208 17.6042Z" fill="white"/>
<path d="M205.616 9.01327V13.2557H193.353V9.01327H205.616ZM196.137 4.13448H201.785V23.1193C201.785 23.6408 201.864 24.0474 202.023 24.339C202.182 24.6219 202.403 24.8207 202.686 24.9356C202.978 25.0505 203.314 25.108 203.694 25.108C203.959 25.108 204.224 25.0859 204.489 25.0417C204.754 24.9886 204.958 24.9489 205.099 24.9224L205.987 29.125C205.704 29.2134 205.307 29.315 204.794 29.4299C204.281 29.5537 203.658 29.6288 202.925 29.6553C201.564 29.7083 200.37 29.5272 199.345 29.1118C198.329 28.6963 197.538 28.0511 196.972 27.1761C196.406 26.3011 196.128 25.1963 196.137 23.8618V4.13448Z" fill="white"/>
</svg>
